# xmcd CD database file
#
# Track frame offsets:
#	150
#	14993
#	29865
#	48460
#	62563
#	77600
#	93215
#	109108
#	123498
#	138980
#	158165
#	178050
#	194013
#	211493
#	231540
#	255788
#
# Disc length: 3641 seconds
#
# Revision: 3
# Processed by: cddbd v1.5.1PL0 Copyright (c) Steve Scherf et al.
# Submitted via: CDex 1.51
#
DISCID=e70e3710
DTITLE=De＋LAX - 5’s LIFE THE STORY OF De＋LAX 1988-1992 5Years×5Lives DISC2
DYEAR=1993
DGENRE=Rock
TTITLE0=SPIRITS A GO-GO
TTITLE1=NEUROMANCER
TTITLE2=MOVE ON UP
TTITLE3=LIVE FOR NOW
TTITLE4=CYBERSEX
TTITLE5=突然 炎のごとく
TTITLE6=BLUE HEART LOVER
TTITLE7=CRAZY BOY
TTITLE8=POP IS MY LIFE
TTITLE9=MAGICAL MYSTERY BEAT
TTITLE10=VOICE OF LOVE
TTITLE11=SENSATION
TTITLE12=SUPERCADILLAC
TTITLE13=REVOLUTION
TTITLE14=POWER
TTITLE15=CRUSH YOUR BRAIN
EXTD=YEAR: 1993
EXTT0=
EXTT1=
EXTT2=
EXTT3=
EXTT4=
EXTT5=
EXTT6=
EXTT7=
EXTT8=
EXTT9=
EXTT10=
EXTT11=
EXTT12=
EXTT13=
EXTT14=
EXTT15=
PLAYORDER=
